<svg width="153" height="155" viewBox="0 0 153 155" fill="none" xmlns="http://www.w3.org/2000/svg">
<path d="M4.93548 2.5C4.93548 3.88071 3.83064 5 2.46774 5C1.10485 5 0 3.88071 0 2.5C0 1.11929 1.10485 0 2.46774 0C3.83064 0 4.93548 1.11929 4.93548 2.5Z" fill="#1C1B20"/>
<path d="M14.8065 2.5C14.8065 3.88071 13.7017 5 12.3388 5C10.9759 5 9.87103 3.88071 9.87103 2.5C9.87103 1.11929 10.9759 0 12.3388 0C13.7017 0 14.8065 1.11929 14.8065 2.5Z" fill="#1C1B20"/>
<path d="M24.6775 2.5C24.6775 3.88071 23.5727 5 22.2098 5C20.8469 5 19.7421 3.88071 19.7421 2.5C19.7421 1.11929 20.8469 0 22.2098 0C23.5727 0 24.6775 1.11929 24.6775 2.5Z" fill="#1C1B20"/>
<path d="M34.5486 2.5C34.5486 3.88071 33.4437 5 32.0808 5C30.7179 5 29.6131 3.88071 29.6131 2.5C29.6131 1.11929 30.7179 0 32.0808 0C33.4437 0 34.5486 1.11929 34.5486 2.5Z" fill="#1C1B20"/>
<path d="M44.4191 2.5C44.4191 3.88071 43.3143 5 41.9514 5C40.5885 5 39.4836 3.88071 39.4836 2.5C39.4836 1.11929 40.5885 0 41.9514 0C43.3143 0 44.4191 1.11929 44.4191 2.5Z" fill="#1C1B20"/>
<path d="M54.2902 2.5C54.2902 3.88071 53.1853 5 51.8224 5C50.4595 5 49.3547 3.88071 49.3547 2.5C49.3547 1.11929 50.4595 0 51.8224 0C53.1853 0 54.2902 1.11929 54.2902 2.5Z" fill="#1C1B20"/>
<path d="M64.1612 2.5C64.1612 3.88071 63.0563 5 61.6934 5C60.3305 5 59.2257 3.88071 59.2257 2.5C59.2257 1.11929 60.3305 0 61.6934 0C63.0563 0 64.1612 1.11929 64.1612 2.5Z" fill="#FF5851"/>
<path d="M74.0322 2.5C74.0322 3.88071 72.9274 5 71.5645 5C70.2016 5 69.0967 3.88071 69.0967 2.5C69.0967 1.11929 70.2016 0 71.5645 0C72.9274 0 74.0322 1.11929 74.0322 2.5Z" fill="#1C1B20"/>
<path d="M83.9032 2.5C83.9032 3.88071 82.7984 5 81.4355 5C80.0726 5 78.9678 3.88071 78.9678 2.5C78.9678 1.11929 80.0726 0 81.4355 0C82.7984 0 83.9032 1.11929 83.9032 2.5Z" fill="#FF5851"/>
<path d="M93.7743 2.5C93.7743 3.88071 92.6694 5 91.3065 5C89.9436 5 88.8388 3.88071 88.8388 2.5C88.8388 1.11929 89.9436 0 91.3065 0C92.6694 0 93.7743 1.11929 93.7743 2.5Z" fill="#1C1B20"/>
<path d="M103.645 2.5C103.645 3.88071 102.54 5 101.178 5C99.8147 5 98.7098 3.88071 98.7098 2.5C98.7098 1.11929 99.8147 0 101.178 0C102.54 0 103.645 1.11929 103.645 2.5Z" fill="#1C1B20"/>
<path d="M113.516 2.5C113.516 3.88071 112.411 5 111.049 5C109.686 5 108.581 3.88071 108.581 2.5C108.581 1.11929 109.686 0 111.049 0C112.411 0 113.516 1.11929 113.516 2.5Z" fill="#1C1B20"/>
<path d="M4.93548 12.5C4.93548 13.8807 3.83064 15 2.46774 15C1.10485 15 0 13.8807 0 12.5C0 11.1193 1.10485 10 2.46774 10C3.83064 10 4.93548 11.1193 4.93548 12.5Z" fill="#1C1B20"/>
<path d="M14.8065 12.5C14.8065 13.8807 13.7017 15 12.3388 15C10.9759 15 9.87103 13.8807 9.87103 12.5C9.87103 11.1193 10.9759 10 12.3388 10C13.7017 10 14.8065 11.1193 14.8065 12.5Z" fill="#1C1B20"/>
<path d="M24.6775 12.5C24.6775 13.8807 23.5727 15 22.2098 15C20.8469 15 19.7421 13.8807 19.7421 12.5C19.7421 11.1193 20.8469 10 22.2098 10C23.5727 10 24.6775 11.1193 24.6775 12.5Z" fill="#1C1B20"/>
<path d="M34.5486 12.5C34.5486 13.8807 33.4437 15 32.0808 15C30.7179 15 29.6131 13.8807 29.6131 12.5C29.6131 11.1193 30.7179 10 32.0808 10C33.4437 10 34.5486 11.1193 34.5486 12.5Z" fill="#1C1B20"/>
<path d="M44.4191 12.5C44.4191 13.8807 43.3143 15 41.9514 15C40.5885 15 39.4836 13.8807 39.4836 12.5C39.4836 11.1193 40.5885 10 41.9514 10C43.3143 10 44.4191 11.1193 44.4191 12.5Z" fill="#1C1B20"/>
<path d="M54.2902 12.5C54.2902 13.8807 53.1853 15 51.8224 15C50.4595 15 49.3547 13.8807 49.3547 12.5C49.3547 11.1193 50.4595 10 51.8224 10C53.1853 10 54.2902 11.1193 54.2902 12.5Z" fill="#1C1B20"/>
<path d="M64.1612 12.5C64.1612 13.8807 63.0563 15 61.6934 15C60.3305 15 59.2257 13.8807 59.2257 12.5C59.2257 11.1193 60.3305 10 61.6934 10C63.0563 10 64.1612 11.1193 64.1612 12.5Z" fill="#1C1B20"/>
<path d="M74.0322 12.5C74.0322 13.8807 72.9274 15 71.5645 15C70.2016 15 69.0967 13.8807 69.0967 12.5C69.0967 11.1193 70.2016 10 71.5645 10C72.9274 10 74.0322 11.1193 74.0322 12.5Z" fill="#1C1B20"/>
<path d="M83.9032 12.5C83.9032 13.8807 82.7984 15 81.4355 15C80.0726 15 78.9678 13.8807 78.9678 12.5C78.9678 11.1193 80.0726 10 81.4355 10C82.7984 10 83.9032 11.1193 83.9032 12.5Z" fill="#1C1B20"/>
<path d="M93.7743 12.5C93.7743 13.8807 92.6694 15 91.3065 15C89.9436 15 88.8388 13.8807 88.8388 12.5C88.8388 11.1193 89.9436 10 91.3065 10C92.6694 10 93.7743 11.1193 93.7743 12.5Z" fill="#1C1B20"/>
<path d="M103.645 12.5C103.645 13.8807 102.54 15 101.178 15C99.8147 15 98.7098 13.8807 98.7098 12.5C98.7098 11.1193 99.8147 10 101.178 10C102.54 10 103.645 11.1193 103.645 12.5Z" fill="#1C1B20"/>
<path d="M113.516 12.5C113.516 13.8807 112.411 15 111.049 15C109.686 15 108.581 13.8807 108.581 12.5C108.581 11.1193 109.686 10 111.049 10C112.411 10 113.516 11.1193 113.516 12.5Z" fill="#1C1B20"/>
<path d="M4.93548 22.5C4.93548 23.8807 3.83064 25 2.46774 25C1.10485 25 0 23.8807 0 22.5C0 21.1193 1.10485 20 2.46774 20C3.83064 20 4.93548 21.1193 4.93548 22.5Z" fill="#1C1B20"/>
<path d="M14.8065 22.5C14.8065 23.8807 13.7017 25 12.3388 25C10.9759 25 9.87103 23.8807 9.87103 22.5C9.87103 21.1193 10.9759 20 12.3388 20C13.7017 20 14.8065 21.1193 14.8065 22.5Z" fill="#1C1B20"/>
<path d="M24.6775 22.5C24.6775 23.8807 23.5727 25 22.2098 25C20.8469 25 19.7421 23.8807 19.7421 22.5C19.7421 21.1193 20.8469 20 22.2098 20C23.5727 20 24.6775 21.1193 24.6775 22.5Z" fill="#FF5851"/>
<path d="M34.5486 22.5C34.5486 23.8807 33.4437 25 32.0808 25C30.7179 25 29.6131 23.8807 29.6131 22.5C29.6131 21.1193 30.7179 20 32.0808 20C33.4437 20 34.5486 21.1193 34.5486 22.5Z" fill="#FF5851"/>
<path d="M44.4191 22.5C44.4191 23.8807 43.3143 25 41.9514 25C40.5885 25 39.4836 23.8807 39.4836 22.5C39.4836 21.1193 40.5885 20 41.9514 20C43.3143 20 44.4191 21.1193 44.4191 22.5Z" fill="#1C1B20"/>
<path d="M54.2902 22.5C54.2902 23.8807 53.1853 25 51.8224 25C50.4595 25 49.3547 23.8807 49.3547 22.5C49.3547 21.1193 50.4595 20 51.8224 20C53.1853 20 54.2902 21.1193 54.2902 22.5Z" fill="#1C1B20"/>
<path d="M64.1612 22.5C64.1612 23.8807 63.0563 25 61.6934 25C60.3305 25 59.2257 23.8807 59.2257 22.5C59.2257 21.1193 60.3305 20 61.6934 20C63.0563 20 64.1612 21.1193 64.1612 22.5Z" fill="#1C1B20"/>
<path d="M74.0322 22.5C74.0322 23.8807 72.9274 25 71.5645 25C70.2016 25 69.0967 23.8807 69.0967 22.5C69.0967 21.1193 70.2016 20 71.5645 20C72.9274 20 74.0322 21.1193 74.0322 22.5Z" fill="#1C1B20"/>
<path d="M83.9032 22.5C83.9032 23.8807 82.7984 25 81.4355 25C80.0726 25 78.9678 23.8807 78.9678 22.5C78.9678 21.1193 80.0726 20 81.4355 20C82.7984 20 83.9032 21.1193 83.9032 22.5Z" fill="#1C1B20"/>
<path d="M93.7743 22.5C93.7743 23.8807 92.6694 25 91.3065 25C89.9436 25 88.8388 23.8807 88.8388 22.5C88.8388 21.1193 89.9436 20 91.3065 20C92.6694 20 93.7743 21.1193 93.7743 22.5Z" fill="#1C1B20"/>
<path d="M103.645 22.5C103.645 23.8807 102.54 25 101.178 25C99.8147 25 98.7098 23.8807 98.7098 22.5C98.7098 21.1193 99.8147 20 101.178 20C102.54 20 103.645 21.1193 103.645 22.5Z" fill="#1C1B20"/>
<path d="M113.516 22.5C113.516 23.8807 112.411 25 111.049 25C109.686 25 108.581 23.8807 108.581 22.5C108.581 21.1193 109.686 20 111.049 20C112.411 20 113.516 21.1193 113.516 22.5Z" fill="#1C1B20"/>
<path d="M4.93548 32.5C4.93548 33.8807 3.83064 35 2.46774 35C1.10485 35 0 33.8807 0 32.5C0 31.1193 1.10485 30 2.46774 30C3.83064 30 4.93548 31.1193 4.93548 32.5Z" fill="#1C1B20"/>
<path d="M14.8065 32.5C14.8065 33.8807 13.7017 35 12.3388 35C10.9759 35 9.87103 33.8807 9.87103 32.5C9.87103 31.1193 10.9759 30 12.3388 30C13.7017 30 14.8065 31.1193 14.8065 32.5Z" fill="#1C1B20"/>
<path d="M24.6775 32.5C24.6775 33.8807 23.5727 35 22.2098 35C20.8469 35 19.7421 33.8807 19.7421 32.5C19.7421 31.1193 20.8469 30 22.2098 30C23.5727 30 24.6775 31.1193 24.6775 32.5Z" fill="#1C1B20"/>
<path d="M34.5486 32.5C34.5486 33.8807 33.4437 35 32.0808 35C30.7179 35 29.6131 33.8807 29.6131 32.5C29.6131 31.1193 30.7179 30 32.0808 30C33.4437 30 34.5486 31.1193 34.5486 32.5Z" fill="#1C1B20"/>
<path d="M44.4191 32.5C44.4191 33.8807 43.3143 35 41.9514 35C40.5885 35 39.4836 33.8807 39.4836 32.5C39.4836 31.1193 40.5885 30 41.9514 30C43.3143 30 44.4191 31.1193 44.4191 32.5Z" fill="#1C1B20"/>
<path d="M54.2902 32.5C54.2902 33.8807 53.1853 35 51.8224 35C50.4595 35 49.3547 33.8807 49.3547 32.5C49.3547 31.1193 50.4595 30 51.8224 30C53.1853 30 54.2902 31.1193 54.2902 32.5Z" fill="#1C1B20"/>
<path d="M64.1612 32.5C64.1612 33.8807 63.0563 35 61.6934 35C60.3305 35 59.2257 33.8807 59.2257 32.5C59.2257 31.1193 60.3305 30 61.6934 30C63.0563 30 64.1612 31.1193 64.1612 32.5Z" fill="#1C1B20"/>
<path d="M74.0322 32.5C74.0322 33.8807 72.9274 35 71.5645 35C70.2016 35 69.0967 33.8807 69.0967 32.5C69.0967 31.1193 70.2016 30 71.5645 30C72.9274 30 74.0322 31.1193 74.0322 32.5Z" fill="#1C1B20"/>
<path d="M83.9032 32.5C83.9032 33.8807 82.7984 35 81.4355 35C80.0726 35 78.9678 33.8807 78.9678 32.5C78.9678 31.1193 80.0726 30 81.4355 30C82.7984 30 83.9032 31.1193 83.9032 32.5Z" fill="#FF5851"/>
<path d="M93.7743 32.5C93.7743 33.8807 92.6694 35 91.3065 35C89.9436 35 88.8388 33.8807 88.8388 32.5C88.8388 31.1193 89.9436 30 91.3065 30C92.6694 30 93.7743 31.1193 93.7743 32.5Z" fill="#FF5851"/>
<path d="M103.645 32.5C103.645 33.8807 102.54 35 101.178 35C99.8147 35 98.7098 33.8807 98.7098 32.5C98.7098 31.1193 99.8147 30 101.178 30C102.54 30 103.645 31.1193 103.645 32.5Z" fill="#1C1B20"/>
<path d="M113.516 32.5C113.516 33.8807 112.411 35 111.049 35C109.686 35 108.581 33.8807 108.581 32.5C108.581 31.1193 109.686 30 111.049 30C112.411 30 113.516 31.1193 113.516 32.5Z" fill="#1C1B20"/>
<path d="M4.93548 82.5C4.93548 83.8807 3.83064 85 2.46774 85C1.10485 85 0 83.8807 0 82.5C0 81.1193 1.10485 80 2.46774 80C3.83064 80 4.93548 81.1193 4.93548 82.5Z" fill="#1C1B20"/>
<path d="M14.8065 82.5C14.8065 83.8807 13.7017 85 12.3388 85C10.9759 85 9.87103 83.8807 9.87103 82.5C9.87103 81.1193 10.9759 80 12.3388 80C13.7017 80 14.8065 81.1193 14.8065 82.5Z" fill="#1C1B20"/>
<path d="M24.6775 82.5C24.6775 83.8807 23.5727 85 22.2098 85C20.8469 85 19.7421 83.8807 19.7421 82.5C19.7421 81.1193 20.8469 80 22.2098 80C23.5727 80 24.6775 81.1193 24.6775 82.5Z" fill="#1C1B20"/>
<path d="M34.5486 82.5C34.5486 83.8807 33.4437 85 32.0808 85C30.7179 85 29.6131 83.8807 29.6131 82.5C29.6131 81.1193 30.7179 80 32.0808 80C33.4437 80 34.5486 81.1193 34.5486 82.5Z" fill="#1C1B20"/>
<path d="M44.4191 82.5C44.4191 83.8807 43.3143 85 41.9514 85C40.5885 85 39.4836 83.8807 39.4836 82.5C39.4836 81.1193 40.5885 80 41.9514 80C43.3143 80 44.4191 81.1193 44.4191 82.5Z" fill="#1C1B20"/>
<path d="M54.2902 82.5C54.2902 83.8807 53.1853 85 51.8224 85C50.4595 85 49.3547 83.8807 49.3547 82.5C49.3547 81.1193 50.4595 80 51.8224 80C53.1853 80 54.2902 81.1193 54.2902 82.5Z" fill="#1C1B20"/>
<path d="M64.1612 82.5C64.1612 83.8807 63.0563 85 61.6934 85C60.3305 85 59.2257 83.8807 59.2257 82.5C59.2257 81.1193 60.3305 80 61.6934 80C63.0563 80 64.1612 81.1193 64.1612 82.5Z" fill="#FF5851"/>
<path d="M74.0322 82.5C74.0322 83.8807 72.9274 85 71.5645 85C70.2016 85 69.0967 83.8807 69.0967 82.5C69.0967 81.1193 70.2016 80 71.5645 80C72.9274 80 74.0322 81.1193 74.0322 82.5Z" fill="#1C1B20"/>
<path d="M83.9032 82.5C83.9032 83.8807 82.7984 85 81.4355 85C80.0726 85 78.9678 83.8807 78.9678 82.5C78.9678 81.1193 80.0726 80 81.4355 80C82.7984 80 83.9032 81.1193 83.9032 82.5Z" fill="#FF5851"/>
<path d="M93.7743 82.5C93.7743 83.8807 92.6694 85 91.3065 85C89.9436 85 88.8388 83.8807 88.8388 82.5C88.8388 81.1193 89.9436 80 91.3065 80C92.6694 80 93.7743 81.1193 93.7743 82.5Z" fill="#1C1B20"/>
<path d="M103.645 82.5C103.645 83.8807 102.54 85 101.178 85C99.8147 85 98.7098 83.8807 98.7098 82.5C98.7098 81.1193 99.8147 80 101.178 80C102.54 80 103.645 81.1193 103.645 82.5Z" fill="#1C1B20"/>
<path d="M113.516 82.5C113.516 83.8807 112.411 85 111.049 85C109.686 85 108.581 83.8807 108.581 82.5C108.581 81.1193 109.686 80 111.049 80C112.411 80 113.516 81.1193 113.516 82.5Z" fill="#1C1B20"/>
<path d="M4.93548 92.5C4.93548 93.8807 3.83064 95 2.46774 95C1.10485 95 0 93.8807 0 92.5C0 91.1193 1.10485 90 2.46774 90C3.83064 90 4.93548 91.1193 4.93548 92.5Z" fill="#1C1B20"/>
<path d="M14.8065 92.5C14.8065 93.8807 13.7017 95 12.3388 95C10.9759 95 9.87103 93.8807 9.87103 92.5C9.87103 91.1193 10.9759 90 12.3388 90C13.7017 90 14.8065 91.1193 14.8065 92.5Z" fill="#1C1B20"/>
<path d="M24.6775 92.5C24.6775 93.8807 23.5727 95 22.2098 95C20.8469 95 19.7421 93.8807 19.7421 92.5C19.7421 91.1193 20.8469 90 22.2098 90C23.5727 90 24.6775 91.1193 24.6775 92.5Z" fill="#1C1B20"/>
<path d="M34.5486 92.5C34.5486 93.8807 33.4437 95 32.0808 95C30.7179 95 29.6131 93.8807 29.6131 92.5C29.6131 91.1193 30.7179 90 32.0808 90C33.4437 90 34.5486 91.1193 34.5486 92.5Z" fill="#1C1B20"/>
<path d="M44.4191 92.5C44.4191 93.8807 43.3143 95 41.9514 95C40.5885 95 39.4836 93.8807 39.4836 92.5C39.4836 91.1193 40.5885 90 41.9514 90C43.3143 90 44.4191 91.1193 44.4191 92.5Z" fill="#1C1B20"/>
<path d="M54.2902 92.5C54.2902 93.8807 53.1853 95 51.8224 95C50.4595 95 49.3547 93.8807 49.3547 92.5C49.3547 91.1193 50.4595 90 51.8224 90C53.1853 90 54.2902 91.1193 54.2902 92.5Z" fill="#1C1B20"/>
<path d="M64.1612 92.5C64.1612 93.8807 63.0563 95 61.6934 95C60.3305 95 59.2257 93.8807 59.2257 92.5C59.2257 91.1193 60.3305 90 61.6934 90C63.0563 90 64.1612 91.1193 64.1612 92.5Z" fill="#1C1B20"/>
<path d="M74.0322 92.5C74.0322 93.8807 72.9274 95 71.5645 95C70.2016 95 69.0967 93.8807 69.0967 92.5C69.0967 91.1193 70.2016 90 71.5645 90C72.9274 90 74.0322 91.1193 74.0322 92.5Z" fill="#1C1B20"/>
<path d="M83.9032 92.5C83.9032 93.8807 82.7984 95 81.4355 95C80.0726 95 78.9678 93.8807 78.9678 92.5C78.9678 91.1193 80.0726 90 81.4355 90C82.7984 90 83.9032 91.1193 83.9032 92.5Z" fill="#1C1B20"/>
<path d="M93.7743 92.5C93.7743 93.8807 92.6694 95 91.3065 95C89.9436 95 88.8388 93.8807 88.8388 92.5C88.8388 91.1193 89.9436 90 91.3065 90C92.6694 90 93.7743 91.1193 93.7743 92.5Z" fill="#1C1B20"/>
<path d="M103.645 92.5C103.645 93.8807 102.54 95 101.178 95C99.8147 95 98.7098 93.8807 98.7098 92.5C98.7098 91.1193 99.8147 90 101.178 90C102.54 90 103.645 91.1193 103.645 92.5Z" fill="#1C1B20"/>
<path d="M113.516 92.5C113.516 93.8807 112.411 95 111.049 95C109.686 95 108.581 93.8807 108.581 92.5C108.581 91.1193 109.686 90 111.049 90C112.411 90 113.516 91.1193 113.516 92.5Z" fill="#1C1B20"/>
<path d="M4.93548 102.5C4.93548 103.881 3.83064 105 2.46774 105C1.10485 105 0 103.881 0 102.5C0 101.119 1.10485 100 2.46774 100C3.83064 100 4.93548 101.119 4.93548 102.5Z" fill="#1C1B20"/>
<path d="M14.8065 102.5C14.8065 103.881 13.7017 105 12.3388 105C10.9759 105 9.87103 103.881 9.87103 102.5C9.87103 101.119 10.9759 100 12.3388 100C13.7017 100 14.8065 101.119 14.8065 102.5Z" fill="#1C1B20"/>
<path d="M24.6775 102.5C24.6775 103.881 23.5727 105 22.2098 105C20.8469 105 19.7421 103.881 19.7421 102.5C19.7421 101.119 20.8469 100 22.2098 100C23.5727 100 24.6775 101.119 24.6775 102.5Z" fill="#FF5851"/>
<path d="M34.5486 102.5C34.5486 103.881 33.4437 105 32.0808 105C30.7179 105 29.6131 103.881 29.6131 102.5C29.6131 101.119 30.7179 100 32.0808 100C33.4437 100 34.5486 101.119 34.5486 102.5Z" fill="#1C1B20"/>
<path d="M44.4191 102.5C44.4191 103.881 43.3143 105 41.9514 105C40.5885 105 39.4836 103.881 39.4836 102.5C39.4836 101.119 40.5885 100 41.9514 100C43.3143 100 44.4191 101.119 44.4191 102.5Z" fill="#1C1B20"/>
<path d="M54.2902 102.5C54.2902 103.881 53.1853 105 51.8224 105C50.4595 105 49.3547 103.881 49.3547 102.5C49.3547 101.119 50.4595 100 51.8224 100C53.1853 100 54.2902 101.119 54.2902 102.5Z" fill="#1C1B20"/>
<path d="M64.1612 102.5C64.1612 103.881 63.0563 105 61.6934 105C60.3305 105 59.2257 103.881 59.2257 102.5C59.2257 101.119 60.3305 100 61.6934 100C63.0563 100 64.1612 101.119 64.1612 102.5Z" fill="#1C1B20"/>
<path d="M74.0322 102.5C74.0322 103.881 72.9274 105 71.5645 105C70.2016 105 69.0967 103.881 69.0967 102.5C69.0967 101.119 70.2016 100 71.5645 100C72.9274 100 74.0322 101.119 74.0322 102.5Z" fill="#1C1B20"/>
<path d="M83.9032 102.5C83.9032 103.881 82.7984 105 81.4355 105C80.0726 105 78.9678 103.881 78.9678 102.5C78.9678 101.119 80.0726 100 81.4355 100C82.7984 100 83.9032 101.119 83.9032 102.5Z" fill="#1C1B20"/>
<path d="M93.7743 102.5C93.7743 103.881 92.6694 105 91.3065 105C89.9436 105 88.8388 103.881 88.8388 102.5C88.8388 101.119 89.9436 100 91.3065 100C92.6694 100 93.7743 101.119 93.7743 102.5Z" fill="#1C1B20"/>
<path d="M103.645 102.5C103.645 103.881 102.54 105 101.178 105C99.8147 105 98.7098 103.881 98.7098 102.5C98.7098 101.119 99.8147 100 101.178 100C102.54 100 103.645 101.119 103.645 102.5Z" fill="#1C1B20"/>
<path d="M113.516 102.5C113.516 103.881 112.411 105 111.049 105C109.686 105 108.581 103.881 108.581 102.5C108.581 101.119 109.686 100 111.049 100C112.411 100 113.516 101.119 113.516 102.5Z" fill="#1C1B20"/>
<path d="M4.93548 112.5C4.93548 113.881 3.83064 115 2.46774 115C1.10485 115 0 113.881 0 112.5C0 111.119 1.10485 110 2.46774 110C3.83064 110 4.93548 111.119 4.93548 112.5Z" fill="#1C1B20"/>
<path d="M14.8065 112.5C14.8065 113.881 13.7017 115 12.3388 115C10.9759 115 9.87103 113.881 9.87103 112.5C9.87103 111.119 10.9759 110 12.3388 110C13.7017 110 14.8065 111.119 14.8065 112.5Z" fill="#1C1B20"/>
<path d="M24.6775 112.5C24.6775 113.881 23.5727 115 22.2098 115C20.8469 115 19.7421 113.881 19.7421 112.5C19.7421 111.119 20.8469 110 22.2098 110C23.5727 110 24.6775 111.119 24.6775 112.5Z" fill="#1C1B20"/>
<path d="M34.5486 112.5C34.5486 113.881 33.4437 115 32.0808 115C30.7179 115 29.6131 113.881 29.6131 112.5C29.6131 111.119 30.7179 110 32.0808 110C33.4437 110 34.5486 111.119 34.5486 112.5Z" fill="#1C1B20"/>
<path d="M44.4191 112.5C44.4191 113.881 43.3143 115 41.9514 115C40.5885 115 39.4836 113.881 39.4836 112.5C39.4836 111.119 40.5885 110 41.9514 110C43.3143 110 44.4191 111.119 44.4191 112.5Z" fill="#1C1B20"/>
<path d="M54.2902 112.5C54.2902 113.881 53.1853 115 51.8224 115C50.4595 115 49.3547 113.881 49.3547 112.5C49.3547 111.119 50.4595 110 51.8224 110C53.1853 110 54.2902 111.119 54.2902 112.5Z" fill="#1C1B20"/>
<path d="M64.1612 112.5C64.1612 113.881 63.0563 115 61.6934 115C60.3305 115 59.2257 113.881 59.2257 112.5C59.2257 111.119 60.3305 110 61.6934 110C63.0563 110 64.1612 111.119 64.1612 112.5Z" fill="#1C1B20"/>
<path d="M74.0322 112.5C74.0322 113.881 72.9274 115 71.5645 115C70.2016 115 69.0967 113.881 69.0967 112.5C69.0967 111.119 70.2016 110 71.5645 110C72.9274 110 74.0322 111.119 74.0322 112.5Z" fill="#1C1B20"/>
<path d="M83.9032 112.5C83.9032 113.881 82.7984 115 81.4355 115C80.0726 115 78.9678 113.881 78.9678 112.5C78.9678 111.119 80.0726 110 81.4355 110C82.7984 110 83.9032 111.119 83.9032 112.5Z" fill="#FF5851"/>
<path d="M93.7743 112.5C93.7743 113.881 92.6694 115 91.3065 115C89.9436 115 88.8388 113.881 88.8388 112.5C88.8388 111.119 89.9436 110 91.3065 110C92.6694 110 93.7743 111.119 93.7743 112.5Z" fill="#FF5851"/>
<path d="M103.645 112.5C103.645 113.881 102.54 115 101.178 115C99.8147 115 98.7098 113.881 98.7098 112.5C98.7098 111.119 99.8147 110 101.178 110C102.54 110 103.645 111.119 103.645 112.5Z" fill="#1C1B20"/>
<path d="M113.516 112.5C113.516 113.881 112.411 115 111.049 115C109.686 115 108.581 113.881 108.581 112.5C108.581 111.119 109.686 110 111.049 110C112.411 110 113.516 111.119 113.516 112.5Z" fill="#1C1B20"/>
<path d="M4.93548 42.5C4.93548 43.8807 3.83064 45 2.46774 45C1.10485 45 0 43.8807 0 42.5C0 41.1193 1.10485 40 2.46774 40C3.83064 40 4.93548 41.1193 4.93548 42.5Z" fill="#1C1B20"/>
<path d="M14.8065 42.5C14.8065 43.8807 13.7017 45 12.3388 45C10.9759 45 9.87103 43.8807 9.87103 42.5C9.87103 41.1193 10.9759 40 12.3388 40C13.7017 40 14.8065 41.1193 14.8065 42.5Z" fill="#1C1B20"/>
<path d="M24.6775 42.5C24.6775 43.8807 23.5727 45 22.2098 45C20.8469 45 19.7421 43.8807 19.7421 42.5C19.7421 41.1193 20.8469 40 22.2098 40C23.5727 40 24.6775 41.1193 24.6775 42.5Z" fill="#1C1B20"/>
<path d="M34.5486 42.5C34.5486 43.8807 33.4437 45 32.0808 45C30.7179 45 29.6131 43.8807 29.6131 42.5C29.6131 41.1193 30.7179 40 32.0808 40C33.4437 40 34.5486 41.1193 34.5486 42.5Z" fill="#1C1B20"/>
<path d="M44.4191 42.5C44.4191 43.8807 43.3143 45 41.9514 45C40.5885 45 39.4836 43.8807 39.4836 42.5C39.4836 41.1193 40.5885 40 41.9514 40C43.3143 40 44.4191 41.1193 44.4191 42.5Z" fill="#1C1B20"/>
<path d="M54.2902 42.5C54.2902 43.8807 53.1853 45 51.8224 45C50.4595 45 49.3547 43.8807 49.3547 42.5C49.3547 41.1193 50.4595 40 51.8224 40C53.1853 40 54.2902 41.1193 54.2902 42.5Z" fill="#1C1B20"/>
<path d="M64.1612 42.5C64.1612 43.8807 63.0563 45 61.6934 45C60.3305 45 59.2257 43.8807 59.2257 42.5C59.2257 41.1193 60.3305 40 61.6934 40C63.0563 40 64.1612 41.1193 64.1612 42.5Z" fill="#1C1B20"/>
<path d="M74.0322 42.5C74.0322 43.8807 72.9274 45 71.5645 45C70.2016 45 69.0967 43.8807 69.0967 42.5C69.0967 41.1193 70.2016 40 71.5645 40C72.9274 40 74.0322 41.1193 74.0322 42.5Z" fill="#1C1B20"/>
<path d="M83.9032 42.5C83.9032 43.8807 82.7984 45 81.4355 45C80.0726 45 78.9678 43.8807 78.9678 42.5C78.9678 41.1193 80.0726 40 81.4355 40C82.7984 40 83.9032 41.1193 83.9032 42.5Z" fill="#1C1B20"/>
<path d="M93.7743 42.5C93.7743 43.8807 92.6694 45 91.3065 45C89.9436 45 88.8388 43.8807 88.8388 42.5C88.8388 41.1193 89.9436 40 91.3065 40C92.6694 40 93.7743 41.1193 93.7743 42.5Z" fill="#1C1B20"/>
<path d="M103.645 42.5C103.645 43.8807 102.54 45 101.178 45C99.8147 45 98.7098 43.8807 98.7098 42.5C98.7098 41.1193 99.8147 40 101.178 40C102.54 40 103.645 41.1193 103.645 42.5Z" fill="#1C1B20"/>
<path d="M113.516 42.5C113.516 43.8807 112.411 45 111.049 45C109.686 45 108.581 43.8807 108.581 42.5C108.581 41.1193 109.686 40 111.049 40C112.411 40 113.516 41.1193 113.516 42.5Z" fill="#1C1B20"/>
<path d="M4.93548 52.5C4.93548 53.8807 3.83064 55 2.46774 55C1.10485 55 0 53.8807 0 52.5C0 51.1193 1.10485 50 2.46774 50C3.83064 50 4.93548 51.1193 4.93548 52.5Z" fill="#FF5851"/>
<path d="M14.8065 52.5C14.8065 53.8807 13.7017 55 12.3388 55C10.9759 55 9.87103 53.8807 9.87103 52.5C9.87103 51.1193 10.9759 50 12.3388 50C13.7017 50 14.8065 51.1193 14.8065 52.5Z" fill="#FF5851"/>
<path d="M24.6775 52.5C24.6775 53.8807 23.5727 55 22.2098 55C20.8469 55 19.7421 53.8807 19.7421 52.5C19.7421 51.1193 20.8469 50 22.2098 50C23.5727 50 24.6775 51.1193 24.6775 52.5Z" fill="#1C1B20"/>
<path d="M34.5486 52.5C34.5486 53.8807 33.4437 55 32.0808 55C30.7179 55 29.6131 53.8807 29.6131 52.5C29.6131 51.1193 30.7179 50 32.0808 50C33.4437 50 34.5486 51.1193 34.5486 52.5Z" fill="#1C1B20"/>
<path d="M44.4191 52.5C44.4191 53.8807 43.3143 55 41.9514 55C40.5885 55 39.4836 53.8807 39.4836 52.5C39.4836 51.1193 40.5885 50 41.9514 50C43.3143 50 44.4191 51.1193 44.4191 52.5Z" fill="#1C1B20"/>
<path d="M54.2902 52.5C54.2902 53.8807 53.1853 55 51.8224 55C50.4595 55 49.3547 53.8807 49.3547 52.5C49.3547 51.1193 50.4595 50 51.8224 50C53.1853 50 54.2902 51.1193 54.2902 52.5Z" fill="#1C1B20"/>
<path d="M64.1612 52.5C64.1612 53.8807 63.0563 55 61.6934 55C60.3305 55 59.2257 53.8807 59.2257 52.5C59.2257 51.1193 60.3305 50 61.6934 50C63.0563 50 64.1612 51.1193 64.1612 52.5Z" fill="#1C1B20"/>
<path d="M74.0322 52.5C74.0322 53.8807 72.9274 55 71.5645 55C70.2016 55 69.0967 53.8807 69.0967 52.5C69.0967 51.1193 70.2016 50 71.5645 50C72.9274 50 74.0322 51.1193 74.0322 52.5Z" fill="#1C1B20"/>
<path d="M83.9032 52.5C83.9032 53.8807 82.7984 55 81.4355 55C80.0726 55 78.9678 53.8807 78.9678 52.5C78.9678 51.1193 80.0726 50 81.4355 50C82.7984 50 83.9032 51.1193 83.9032 52.5Z" fill="#1C1B20"/>
<path d="M93.7743 52.5C93.7743 53.8807 92.6694 55 91.3065 55C89.9436 55 88.8388 53.8807 88.8388 52.5C88.8388 51.1193 89.9436 50 91.3065 50C92.6694 50 93.7743 51.1193 93.7743 52.5Z" fill="#1C1B20"/>
<path d="M103.645 52.5C103.645 53.8807 102.54 55 101.178 55C99.8147 55 98.7098 53.8807 98.7098 52.5C98.7098 51.1193 99.8147 50 101.178 50C102.54 50 103.645 51.1193 103.645 52.5Z" fill="#FF5851"/>
<path d="M113.516 52.5C113.516 53.8807 112.411 55 111.049 55C109.686 55 108.581 53.8807 108.581 52.5C108.581 51.1193 109.686 50 111.049 50C112.411 50 113.516 51.1193 113.516 52.5Z" fill="#FF5851"/>
<path d="M4.93548 62.5C4.93548 63.8807 3.83064 65 2.46774 65C1.10485 65 0 63.8807 0 62.5C0 61.1193 1.10485 60 2.46774 60C3.83064 60 4.93548 61.1193 4.93548 62.5Z" fill="#1C1B20"/>
<path d="M14.8065 62.5C14.8065 63.8807 13.7017 65 12.3388 65C10.9759 65 9.87103 63.8807 9.87103 62.5C9.87103 61.1193 10.9759 60 12.3388 60C13.7017 60 14.8065 61.1193 14.8065 62.5Z" fill="#1C1B20"/>
<path d="M24.6775 62.5C24.6775 63.8807 23.5727 65 22.2098 65C20.8469 65 19.7421 63.8807 19.7421 62.5C19.7421 61.1193 20.8469 60 22.2098 60C23.5727 60 24.6775 61.1193 24.6775 62.5Z" fill="#1C1B20"/>
<path d="M34.5486 62.5C34.5486 63.8807 33.4437 65 32.0808 65C30.7179 65 29.6131 63.8807 29.6131 62.5C29.6131 61.1193 30.7179 60 32.0808 60C33.4437 60 34.5486 61.1193 34.5486 62.5Z" fill="#1C1B20"/>
<path d="M44.4191 62.5C44.4191 63.8807 43.3143 65 41.9514 65C40.5885 65 39.4836 63.8807 39.4836 62.5C39.4836 61.1193 40.5885 60 41.9514 60C43.3143 60 44.4191 61.1193 44.4191 62.5Z" fill="#1C1B20"/>
<path d="M54.2902 62.5C54.2902 63.8807 53.1853 65 51.8224 65C50.4595 65 49.3547 63.8807 49.3547 62.5C49.3547 61.1193 50.4595 60 51.8224 60C53.1853 60 54.2902 61.1193 54.2902 62.5Z" fill="#1C1B20"/>
<path d="M64.1612 62.5C64.1612 63.8807 63.0563 65 61.6934 65C60.3305 65 59.2257 63.8807 59.2257 62.5C59.2257 61.1193 60.3305 60 61.6934 60C63.0563 60 64.1612 61.1193 64.1612 62.5Z" fill="#FF5851"/>
<path d="M74.0322 62.5C74.0322 63.8807 72.9274 65 71.5645 65C70.2016 65 69.0967 63.8807 69.0967 62.5C69.0967 61.1193 70.2016 60 71.5645 60C72.9274 60 74.0322 61.1193 74.0322 62.5Z" fill="#FF5851"/>
<path d="M83.9032 62.5C83.9032 63.8807 82.7984 65 81.4355 65C80.0726 65 78.9678 63.8807 78.9678 62.5C78.9678 61.1193 80.0726 60 81.4355 60C82.7984 60 83.9032 61.1193 83.9032 62.5Z" fill="#1C1B20"/>
<path d="M93.7743 62.5C93.7743 63.8807 92.6694 65 91.3065 65C89.9436 65 88.8388 63.8807 88.8388 62.5C88.8388 61.1193 89.9436 60 91.3065 60C92.6694 60 93.7743 61.1193 93.7743 62.5Z" fill="#1C1B20"/>
<path d="M103.645 62.5C103.645 63.8807 102.54 65 101.178 65C99.8147 65 98.7098 63.8807 98.7098 62.5C98.7098 61.1193 99.8147 60 101.178 60C102.54 60 103.645 61.1193 103.645 62.5Z" fill="#1C1B20"/>
<path d="M113.516 62.5C113.516 63.8807 112.411 65 111.049 65C109.686 65 108.581 63.8807 108.581 62.5C108.581 61.1193 109.686 60 111.049 60C112.411 60 113.516 61.1193 113.516 62.5Z" fill="#1C1B20"/>
<path d="M4.93548 72.5C4.93548 73.8807 3.83064 75 2.46774 75C1.10485 75 0 73.8807 0 72.5C0 71.1193 1.10485 70 2.46774 70C3.83064 70 4.93548 71.1193 4.93548 72.5Z" fill="#1C1B20"/>
<path d="M14.8065 72.5C14.8065 73.8807 13.7017 75 12.3388 75C10.9759 75 9.87103 73.8807 9.87103 72.5C9.87103 71.1193 10.9759 70 12.3388 70C13.7017 70 14.8065 71.1193 14.8065 72.5Z" fill="#1C1B20"/>
<path d="M24.6775 72.5C24.6775 73.8807 23.5727 75 22.2098 75C20.8469 75 19.7421 73.8807 19.7421 72.5C19.7421 71.1193 20.8469 70 22.2098 70C23.5727 70 24.6775 71.1193 24.6775 72.5Z" fill="#FF5851"/>
<path d="M34.5486 72.5C34.5486 73.8807 33.4437 75 32.0808 75C30.7179 75 29.6131 73.8807 29.6131 72.5C29.6131 71.1193 30.7179 70 32.0808 70C33.4437 70 34.5486 71.1193 34.5486 72.5Z" fill="#1C1B20"/>
<path d="M44.4191 72.5C44.4191 73.8807 43.3143 75 41.9514 75C40.5885 75 39.4836 73.8807 39.4836 72.5C39.4836 71.1193 40.5885 70 41.9514 70C43.3143 70 44.4191 71.1193 44.4191 72.5Z" fill="#1C1B20"/>
<path d="M54.2902 72.5C54.2902 73.8807 53.1853 75 51.8224 75C50.4595 75 49.3547 73.8807 49.3547 72.5C49.3547 71.1193 50.4595 70 51.8224 70C53.1853 70 54.2902 71.1193 54.2902 72.5Z" fill="#1C1B20"/>
<path d="M64.1612 72.5C64.1612 73.8807 63.0563 75 61.6934 75C60.3305 75 59.2257 73.8807 59.2257 72.5C59.2257 71.1193 60.3305 70 61.6934 70C63.0563 70 64.1612 71.1193 64.1612 72.5Z" fill="#1C1B20"/>
<path d="M123.387 2.5C123.387 3.88071 122.282 5 120.919 5C119.556 5 118.451 3.88071 118.451 2.5C118.451 1.11929 119.556 0 120.919 0C122.282 0 123.387 1.11929 123.387 2.5Z" fill="#1C1B20"/>
<path d="M133.258 2.5C133.258 3.88071 132.153 5 130.79 5C129.427 5 128.322 3.88071 128.322 2.5C128.322 1.11929 129.427 0 130.79 0C132.153 0 133.258 1.11929 133.258 2.5Z" fill="#1C1B20"/>
<path d="M143.129 2.5C143.129 3.88071 142.024 5 140.661 5C139.298 5 138.193 3.88071 138.193 2.5C138.193 1.11929 139.298 0 140.661 0C142.024 0 143.129 1.11929 143.129 2.5Z" fill="#1C1B20"/>
<path d="M153 2.5C153 3.88071 151.895 5 150.532 5C149.169 5 148.064 3.88071 148.064 2.5C148.064 1.11929 149.169 0 150.532 0C151.895 0 153 1.11929 153 2.5Z" fill="#1C1B20"/>
<path d="M123.387 12.5C123.387 13.8807 122.282 15 120.919 15C119.556 15 118.451 13.8807 118.451 12.5C118.451 11.1193 119.556 10 120.919 10C122.282 10 123.387 11.1193 123.387 12.5Z" fill="#1C1B20"/>
<path d="M133.258 12.5C133.258 13.8807 132.153 15 130.79 15C129.427 15 128.322 13.8807 128.322 12.5C128.322 11.1193 129.427 10 130.79 10C132.153 10 133.258 11.1193 133.258 12.5Z" fill="#1C1B20"/>
<path d="M143.129 12.5C143.129 13.8807 142.024 15 140.661 15C139.298 15 138.193 13.8807 138.193 12.5C138.193 11.1193 139.298 10 140.661 10C142.024 10 143.129 11.1193 143.129 12.5Z" fill="#1C1B20"/>
<path d="M153 12.5C153 13.8807 151.895 15 150.532 15C149.169 15 148.064 13.8807 148.064 12.5C148.064 11.1193 149.169 10 150.532 10C151.895 10 153 11.1193 153 12.5Z" fill="#1C1B20"/>
<path d="M123.387 22.5C123.387 23.8807 122.282 25 120.919 25C119.556 25 118.451 23.8807 118.451 22.5C118.451 21.1193 119.556 20 120.919 20C122.282 20 123.387 21.1193 123.387 22.5Z" fill="#FF5851"/>
<path d="M133.258 22.5C133.258 23.8807 132.153 25 130.79 25C129.427 25 128.322 23.8807 128.322 22.5C128.322 21.1193 129.427 20 130.79 20C132.153 20 133.258 21.1193 133.258 22.5Z" fill="#1C1B20"/>
<path d="M143.129 22.5C143.129 23.8807 142.024 25 140.661 25C139.298 25 138.193 23.8807 138.193 22.5C138.193 21.1193 139.298 20 140.661 20C142.024 20 143.129 21.1193 143.129 22.5Z" fill="#1C1B20"/>
<path d="M153 22.5C153 23.8807 151.895 25 150.532 25C149.169 25 148.064 23.8807 148.064 22.5C148.064 21.1193 149.169 20 150.532 20C151.895 20 153 21.1193 153 22.5Z" fill="#1C1B20"/>
<path d="M123.387 32.5C123.387 33.8807 122.282 35 120.919 35C119.556 35 118.451 33.8807 118.451 32.5C118.451 31.1193 119.556 30 120.919 30C122.282 30 123.387 31.1193 123.387 32.5Z" fill="#1C1B20"/>
<path d="M133.258 32.5C133.258 33.8807 132.153 35 130.79 35C129.427 35 128.322 33.8807 128.322 32.5C128.322 31.1193 129.427 30 130.79 30C132.153 30 133.258 31.1193 133.258 32.5Z" fill="#1C1B20"/>
<path d="M143.129 32.5C143.129 33.8807 142.024 35 140.661 35C139.298 35 138.193 33.8807 138.193 32.5C138.193 31.1193 139.298 30 140.661 30C142.024 30 143.129 31.1193 143.129 32.5Z" fill="#1C1B20"/>
<path d="M153 32.5C153 33.8807 151.895 35 150.532 35C149.169 35 148.064 33.8807 148.064 32.5C148.064 31.1193 149.169 30 150.532 30C151.895 30 153 31.1193 153 32.5Z" fill="#1C1B20"/>
<path d="M123.387 82.5C123.387 83.8807 122.282 85 120.919 85C119.556 85 118.451 83.8807 118.451 82.5C118.451 81.1193 119.556 80 120.919 80C122.282 80 123.387 81.1193 123.387 82.5Z" fill="#1C1B20"/>
<path d="M133.258 82.5C133.258 83.8807 132.153 85 130.79 85C129.427 85 128.322 83.8807 128.322 82.5C128.322 81.1193 129.427 80 130.79 80C132.153 80 133.258 81.1193 133.258 82.5Z" fill="#1C1B20"/>
<path d="M143.129 82.5C143.129 83.8807 142.024 85 140.661 85C139.298 85 138.193 83.8807 138.193 82.5C138.193 81.1193 139.298 80 140.661 80C142.024 80 143.129 81.1193 143.129 82.5Z" fill="#1C1B20"/>
<path d="M153 82.5C153 83.8807 151.895 85 150.532 85C149.169 85 148.064 83.8807 148.064 82.5C148.064 81.1193 149.169 80 150.532 80C151.895 80 153 81.1193 153 82.5Z" fill="#FF5851"/>
<path d="M123.387 92.5C123.387 93.8807 122.282 95 120.919 95C119.556 95 118.451 93.8807 118.451 92.5C118.451 91.1193 119.556 90 120.919 90C122.282 90 123.387 91.1193 123.387 92.5Z" fill="#1C1B20"/>
<path d="M133.258 92.5C133.258 93.8807 132.153 95 130.79 95C129.427 95 128.322 93.8807 128.322 92.5C128.322 91.1193 129.427 90 130.79 90C132.153 90 133.258 91.1193 133.258 92.5Z" fill="#1C1B20"/>
<path d="M143.129 92.5C143.129 93.8807 142.024 95 140.661 95C139.298 95 138.193 93.8807 138.193 92.5C138.193 91.1193 139.298 90 140.661 90C142.024 90 143.129 91.1193 143.129 92.5Z" fill="#1C1B20"/>
<path d="M153 92.5C153 93.8807 151.895 95 150.532 95C149.169 95 148.064 93.8807 148.064 92.5C148.064 91.1193 149.169 90 150.532 90C151.895 90 153 91.1193 153 92.5Z" fill="#1C1B20"/>
<path d="M123.387 102.5C123.387 103.881 122.282 105 120.919 105C119.556 105 118.451 103.881 118.451 102.5C118.451 101.119 119.556 100 120.919 100C122.282 100 123.387 101.119 123.387 102.5Z" fill="#1C1B20"/>
<path d="M133.258 102.5C133.258 103.881 132.153 105 130.79 105C129.427 105 128.322 103.881 128.322 102.5C128.322 101.119 129.427 100 130.79 100C132.153 100 133.258 101.119 133.258 102.5Z" fill="#1C1B20"/>
<path d="M143.129 102.5C143.129 103.881 142.024 105 140.661 105C139.298 105 138.193 103.881 138.193 102.5C138.193 101.119 139.298 100 140.661 100C142.024 100 143.129 101.119 143.129 102.5Z" fill="#1C1B20"/>
<path d="M153 102.5C153 103.881 151.895 105 150.532 105C149.169 105 148.064 103.881 148.064 102.5C148.064 101.119 149.169 100 150.532 100C151.895 100 153 101.119 153 102.5Z" fill="#1C1B20"/>
<path d="M123.387 112.5C123.387 113.881 122.282 115 120.919 115C119.556 115 118.451 113.881 118.451 112.5C118.451 111.119 119.556 110 120.919 110C122.282 110 123.387 111.119 123.387 112.5Z" fill="#1C1B20"/>
<path d="M133.258 112.5C133.258 113.881 132.153 115 130.79 115C129.427 115 128.322 113.881 128.322 112.5C128.322 111.119 129.427 110 130.79 110C132.153 110 133.258 111.119 133.258 112.5Z" fill="#1C1B20"/>
<path d="M143.129 112.5C143.129 113.881 142.024 115 140.661 115C139.298 115 138.193 113.881 138.193 112.5C138.193 111.119 139.298 110 140.661 110C142.024 110 143.129 111.119 143.129 112.5Z" fill="#1C1B20"/>
<path d="M153 112.5C153 113.881 151.895 115 150.532 115C149.169 115 148.064 113.881 148.064 112.5C148.064 111.119 149.169 110 150.532 110C151.895 110 153 111.119 153 112.5Z" fill="#1C1B20"/>
<path d="M123.387 42.5C123.387 43.8807 122.282 45 120.919 45C119.556 45 118.451 43.8807 118.451 42.5C118.451 41.1193 119.556 40 120.919 40C122.282 40 123.387 41.1193 123.387 42.5Z" fill="#1C1B20"/>
<path d="M133.258 42.5C133.258 43.8807 132.153 45 130.79 45C129.427 45 128.322 43.8807 128.322 42.5C128.322 41.1193 129.427 40 130.79 40C132.153 40 133.258 41.1193 133.258 42.5Z" fill="#1C1B20"/>
<path d="M143.129 42.5C143.129 43.8807 142.024 45 140.661 45C139.298 45 138.193 43.8807 138.193 42.5C138.193 41.1193 139.298 40 140.661 40C142.024 40 143.129 41.1193 143.129 42.5Z" fill="#1C1B20"/>
<path d="M153 42.5C153 43.8807 151.895 45 150.532 45C149.169 45 148.064 43.8807 148.064 42.5C148.064 41.1193 149.169 40 150.532 40C151.895 40 153 41.1193 153 42.5Z" fill="#1C1B20"/>
<path d="M123.387 52.5C123.387 53.8807 122.282 55 120.919 55C119.556 55 118.451 53.8807 118.451 52.5C118.451 51.1193 119.556 50 120.919 50C122.282 50 123.387 51.1193 123.387 52.5Z" fill="#1C1B20"/>
<path d="M133.258 52.5C133.258 53.8807 132.153 55 130.79 55C129.427 55 128.322 53.8807 128.322 52.5C128.322 51.1193 129.427 50 130.79 50C132.153 50 133.258 51.1193 133.258 52.5Z" fill="#1C1B20"/>
<path d="M143.129 52.5C143.129 53.8807 142.024 55 140.661 55C139.298 55 138.193 53.8807 138.193 52.5C138.193 51.1193 139.298 50 140.661 50C142.024 50 143.129 51.1193 143.129 52.5Z" fill="#1C1B20"/>
<path d="M153 52.5C153 53.8807 151.895 55 150.532 55C149.169 55 148.064 53.8807 148.064 52.5C148.064 51.1193 149.169 50 150.532 50C151.895 50 153 51.1193 153 52.5Z" fill="#1C1B20"/>
<path d="M123.387 62.5C123.387 63.8807 122.282 65 120.919 65C119.556 65 118.451 63.8807 118.451 62.5C118.451 61.1193 119.556 60 120.919 60C122.282 60 123.387 61.1193 123.387 62.5Z" fill="#1C1B20"/>
<path d="M133.258 62.5C133.258 63.8807 132.153 65 130.79 65C129.427 65 128.322 63.8807 128.322 62.5C128.322 61.1193 129.427 60 130.79 60C132.153 60 133.258 61.1193 133.258 62.5Z" fill="#1C1B20"/>
<path d="M143.129 62.5C143.129 63.8807 142.024 65 140.661 65C139.298 65 138.193 63.8807 138.193 62.5C138.193 61.1193 139.298 60 140.661 60C142.024 60 143.129 61.1193 143.129 62.5Z" fill="#1C1B20"/>
<path d="M153 62.5C153 63.8807 151.895 65 150.532 65C149.169 65 148.064 63.8807 148.064 62.5C148.064 61.1193 149.169 60 150.532 60C151.895 60 153 61.1193 153 62.5Z" fill="#FF5851"/>
<path d="M123.387 72.5C123.387 73.8807 122.282 75 120.919 75C119.556 75 118.451 73.8807 118.451 72.5C118.451 71.1193 119.556 70 120.919 70C122.282 70 123.387 71.1193 123.387 72.5Z" fill="#1C1B20"/>
<path d="M133.258 72.5C133.258 73.8807 132.153 75 130.79 75C129.427 75 128.322 73.8807 128.322 72.5C128.322 71.1193 129.427 70 130.79 70C132.153 70 133.258 71.1193 133.258 72.5Z" fill="#1C1B20"/>
<path d="M143.129 72.5C143.129 73.8807 142.024 75 140.661 75C139.298 75 138.193 73.8807 138.193 72.5C138.193 71.1193 139.298 70 140.661 70C142.024 70 143.129 71.1193 143.129 72.5Z" fill="#1C1B20"/>
<path d="M153 72.5C153 73.8807 151.895 75 150.532 75C149.169 75 148.064 73.8807 148.064 72.5C148.064 71.1193 149.169 70 150.532 70C151.895 70 153 71.1193 153 72.5Z" fill="#1C1B20"/>
<path d="M74.0322 72.5C74.0322 73.8807 72.9274 75 71.5645 75C70.2016 75 69.0967 73.8807 69.0967 72.5C69.0967 71.1193 70.2016 70 71.5645 70C72.9274 70 74.0322 71.1193 74.0322 72.5Z" fill="#1C1B20"/>
<path d="M83.9032 72.5C83.9032 73.8807 82.7984 75 81.4355 75C80.0726 75 78.9678 73.8807 78.9678 72.5C78.9678 71.1193 80.0726 70 81.4355 70C82.7984 70 83.9032 71.1193 83.9032 72.5Z" fill="#1C1B20"/>
<path d="M93.7743 72.5C93.7743 73.8807 92.6694 75 91.3065 75C89.9436 75 88.8388 73.8807 88.8388 72.5C88.8388 71.1193 89.9436 70 91.3065 70C92.6694 70 93.7743 71.1193 93.7743 72.5Z" fill="#1C1B20"/>
<path d="M103.645 72.5C103.645 73.8807 102.54 75 101.178 75C99.8147 75 98.7098 73.8807 98.7098 72.5C98.7098 71.1193 99.8147 70 101.178 70C102.54 70 103.645 71.1193 103.645 72.5Z" fill="#1C1B20"/>
<path d="M113.516 72.5C113.516 73.8807 112.411 75 111.049 75C109.686 75 108.581 73.8807 108.581 72.5C108.581 71.1193 109.686 70 111.049 70C112.411 70 113.516 71.1193 113.516 72.5Z" fill="#1C1B20"/>
<path d="M4.93548 122.5C4.93548 123.881 3.83064 125 2.46774 125C1.10485 125 0 123.881 0 122.5C0 121.119 1.10485 120 2.46774 120C3.83064 120 4.93548 121.119 4.93548 122.5Z" fill="#1C1B20"/>
<path d="M14.8065 122.5C14.8065 123.881 13.7017 125 12.3388 125C10.9759 125 9.87103 123.881 9.87103 122.5C9.87103 121.119 10.9759 120 12.3388 120C13.7017 120 14.8065 121.119 14.8065 122.5Z" fill="#1C1B20"/>
<path d="M24.6775 122.5C24.6775 123.881 23.5727 125 22.2098 125C20.8469 125 19.7421 123.881 19.7421 122.5C19.7421 121.119 20.8469 120 22.2098 120C23.5727 120 24.6775 121.119 24.6775 122.5Z" fill="#1C1B20"/>
<path d="M34.5486 122.5C34.5486 123.881 33.4437 125 32.0808 125C30.7179 125 29.6131 123.881 29.6131 122.5C29.6131 121.119 30.7179 120 32.0808 120C33.4437 120 34.5486 121.119 34.5486 122.5Z" fill="#1C1B20"/>
<path d="M44.4191 122.5C44.4191 123.881 43.3143 125 41.9514 125C40.5885 125 39.4836 123.881 39.4836 122.5C39.4836 121.119 40.5885 120 41.9514 120C43.3143 120 44.4191 121.119 44.4191 122.5Z" fill="#1C1B20"/>
<path d="M54.2902 122.5C54.2902 123.881 53.1853 125 51.8224 125C50.4595 125 49.3547 123.881 49.3547 122.5C49.3547 121.119 50.4595 120 51.8224 120C53.1853 120 54.2902 121.119 54.2902 122.5Z" fill="#1C1B20"/>
<path d="M64.1612 122.5C64.1612 123.881 63.0563 125 61.6934 125C60.3305 125 59.2257 123.881 59.2257 122.5C59.2257 121.119 60.3305 120 61.6934 120C63.0563 120 64.1612 121.119 64.1612 122.5Z" fill="#1C1B20"/>
<path d="M74.0322 122.5C74.0322 123.881 72.9274 125 71.5645 125C70.2016 125 69.0967 123.881 69.0967 122.5C69.0967 121.119 70.2016 120 71.5645 120C72.9274 120 74.0322 121.119 74.0322 122.5Z" fill="#1C1B20"/>
<path d="M83.9032 122.5C83.9032 123.881 82.7984 125 81.4355 125C80.0726 125 78.9678 123.881 78.9678 122.5C78.9678 121.119 80.0726 120 81.4355 120C82.7984 120 83.9032 121.119 83.9032 122.5Z" fill="#1C1B20"/>
<path d="M93.7743 122.5C93.7743 123.881 92.6694 125 91.3065 125C89.9436 125 88.8388 123.881 88.8388 122.5C88.8388 121.119 89.9436 120 91.3065 120C92.6694 120 93.7743 121.119 93.7743 122.5Z" fill="#1C1B20"/>
<path d="M103.645 122.5C103.645 123.881 102.54 125 101.178 125C99.8147 125 98.7098 123.881 98.7098 122.5C98.7098 121.119 99.8147 120 101.178 120C102.54 120 103.645 121.119 103.645 122.5Z" fill="#1C1B20"/>
<path d="M113.516 122.5C113.516 123.881 112.411 125 111.049 125C109.686 125 108.581 123.881 108.581 122.5C108.581 121.119 109.686 120 111.049 120C112.411 120 113.516 121.119 113.516 122.5Z" fill="#1C1B20"/>
<path d="M4.93548 132.5C4.93548 133.881 3.83064 135 2.46774 135C1.10485 135 0 133.881 0 132.5C0 131.119 1.10485 130 2.46774 130C3.83064 130 4.93548 131.119 4.93548 132.5Z" fill="#FF5851"/>
<path d="M14.8065 132.5C14.8065 133.881 13.7017 135 12.3388 135C10.9759 135 9.87103 133.881 9.87103 132.5C9.87103 131.119 10.9759 130 12.3388 130C13.7017 130 14.8065 131.119 14.8065 132.5Z" fill="#FF5851"/>
<path d="M24.6775 132.5C24.6775 133.881 23.5727 135 22.2098 135C20.8469 135 19.7421 133.881 19.7421 132.5C19.7421 131.119 20.8469 130 22.2098 130C23.5727 130 24.6775 131.119 24.6775 132.5Z" fill="#1C1B20"/>
<path d="M34.5486 132.5C34.5486 133.881 33.4437 135 32.0808 135C30.7179 135 29.6131 133.881 29.6131 132.5C29.6131 131.119 30.7179 130 32.0808 130C33.4437 130 34.5486 131.119 34.5486 132.5Z" fill="#1C1B20"/>
<path d="M44.4191 132.5C44.4191 133.881 43.3143 135 41.9514 135C40.5885 135 39.4836 133.881 39.4836 132.5C39.4836 131.119 40.5885 130 41.9514 130C43.3143 130 44.4191 131.119 44.4191 132.5Z" fill="#1C1B20"/>
<path d="M54.2902 132.5C54.2902 133.881 53.1853 135 51.8224 135C50.4595 135 49.3547 133.881 49.3547 132.5C49.3547 131.119 50.4595 130 51.8224 130C53.1853 130 54.2902 131.119 54.2902 132.5Z" fill="#1C1B20"/>
<path d="M64.1612 132.5C64.1612 133.881 63.0563 135 61.6934 135C60.3305 135 59.2257 133.881 59.2257 132.5C59.2257 131.119 60.3305 130 61.6934 130C63.0563 130 64.1612 131.119 64.1612 132.5Z" fill="#1C1B20"/>
<path d="M74.0322 132.5C74.0322 133.881 72.9274 135 71.5645 135C70.2016 135 69.0967 133.881 69.0967 132.5C69.0967 131.119 70.2016 130 71.5645 130C72.9274 130 74.0322 131.119 74.0322 132.5Z" fill="#1C1B20"/>
<path d="M83.9032 132.5C83.9032 133.881 82.7984 135 81.4355 135C80.0726 135 78.9678 133.881 78.9678 132.5C78.9678 131.119 80.0726 130 81.4355 130C82.7984 130 83.9032 131.119 83.9032 132.5Z" fill="#1C1B20"/>
<path d="M93.7743 132.5C93.7743 133.881 92.6694 135 91.3065 135C89.9436 135 88.8388 133.881 88.8388 132.5C88.8388 131.119 89.9436 130 91.3065 130C92.6694 130 93.7743 131.119 93.7743 132.5Z" fill="#1C1B20"/>
<path d="M103.645 132.5C103.645 133.881 102.54 135 101.178 135C99.8147 135 98.7098 133.881 98.7098 132.5C98.7098 131.119 99.8147 130 101.178 130C102.54 130 103.645 131.119 103.645 132.5Z" fill="#FF5851"/>
<path d="M113.516 132.5C113.516 133.881 112.411 135 111.049 135C109.686 135 108.581 133.881 108.581 132.5C108.581 131.119 109.686 130 111.049 130C112.411 130 113.516 131.119 113.516 132.5Z" fill="#FF5851"/>
<path d="M4.93548 142.5C4.93548 143.881 3.83064 145 2.46774 145C1.10485 145 0 143.881 0 142.5C0 141.119 1.10485 140 2.46774 140C3.83064 140 4.93548 141.119 4.93548 142.5Z" fill="#1C1B20"/>
<path d="M14.8065 142.5C14.8065 143.881 13.7017 145 12.3388 145C10.9759 145 9.87103 143.881 9.87103 142.5C9.87103 141.119 10.9759 140 12.3388 140C13.7017 140 14.8065 141.119 14.8065 142.5Z" fill="#1C1B20"/>
<path d="M24.6775 142.5C24.6775 143.881 23.5727 145 22.2098 145C20.8469 145 19.7421 143.881 19.7421 142.5C19.7421 141.119 20.8469 140 22.2098 140C23.5727 140 24.6775 141.119 24.6775 142.5Z" fill="#1C1B20"/>
<path d="M34.5486 142.5C34.5486 143.881 33.4437 145 32.0808 145C30.7179 145 29.6131 143.881 29.6131 142.5C29.6131 141.119 30.7179 140 32.0808 140C33.4437 140 34.5486 141.119 34.5486 142.5Z" fill="#1C1B20"/>
<path d="M44.4191 142.5C44.4191 143.881 43.3143 145 41.9514 145C40.5885 145 39.4836 143.881 39.4836 142.5C39.4836 141.119 40.5885 140 41.9514 140C43.3143 140 44.4191 141.119 44.4191 142.5Z" fill="#1C1B20"/>
<path d="M54.2902 142.5C54.2902 143.881 53.1853 145 51.8224 145C50.4595 145 49.3547 143.881 49.3547 142.5C49.3547 141.119 50.4595 140 51.8224 140C53.1853 140 54.2902 141.119 54.2902 142.5Z" fill="#1C1B20"/>
<path d="M64.1612 142.5C64.1612 143.881 63.0563 145 61.6934 145C60.3305 145 59.2257 143.881 59.2257 142.5C59.2257 141.119 60.3305 140 61.6934 140C63.0563 140 64.1612 141.119 64.1612 142.5Z" fill="#FF5851"/>
<path d="M74.0322 142.5C74.0322 143.881 72.9274 145 71.5645 145C70.2016 145 69.0967 143.881 69.0967 142.5C69.0967 141.119 70.2016 140 71.5645 140C72.9274 140 74.0322 141.119 74.0322 142.5Z" fill="#FF5851"/>
<path d="M83.9032 142.5C83.9032 143.881 82.7984 145 81.4355 145C80.0726 145 78.9678 143.881 78.9678 142.5C78.9678 141.119 80.0726 140 81.4355 140C82.7984 140 83.9032 141.119 83.9032 142.5Z" fill="#1C1B20"/>
<path d="M93.7743 142.5C93.7743 143.881 92.6694 145 91.3065 145C89.9436 145 88.8388 143.881 88.8388 142.5C88.8388 141.119 89.9436 140 91.3065 140C92.6694 140 93.7743 141.119 93.7743 142.5Z" fill="#1C1B20"/>
<path d="M103.645 142.5C103.645 143.881 102.54 145 101.178 145C99.8147 145 98.7098 143.881 98.7098 142.5C98.7098 141.119 99.8147 140 101.178 140C102.54 140 103.645 141.119 103.645 142.5Z" fill="#1C1B20"/>
<path d="M113.516 142.5C113.516 143.881 112.411 145 111.049 145C109.686 145 108.581 143.881 108.581 142.5C108.581 141.119 109.686 140 111.049 140C112.411 140 113.516 141.119 113.516 142.5Z" fill="#1C1B20"/>
<path d="M4.93548 152.5C4.93548 153.881 3.83064 155 2.46774 155C1.10485 155 0 153.881 0 152.5C0 151.119 1.10485 150 2.46774 150C3.83064 150 4.93548 151.119 4.93548 152.5Z" fill="#1C1B20"/>
<path d="M14.8065 152.5C14.8065 153.881 13.7017 155 12.3388 155C10.9759 155 9.87103 153.881 9.87103 152.5C9.87103 151.119 10.9759 150 12.3388 150C13.7017 150 14.8065 151.119 14.8065 152.5Z" fill="#1C1B20"/>
<path d="M24.6775 152.5C24.6775 153.881 23.5727 155 22.2098 155C20.8469 155 19.7421 153.881 19.7421 152.5C19.7421 151.119 20.8469 150 22.2098 150C23.5727 150 24.6775 151.119 24.6775 152.5Z" fill="#FF5851"/>
<path d="M34.5486 152.5C34.5486 153.881 33.4437 155 32.0808 155C30.7179 155 29.6131 153.881 29.6131 152.5C29.6131 151.119 30.7179 150 32.0808 150C33.4437 150 34.5486 151.119 34.5486 152.5Z" fill="#1C1B20"/>
<path d="M44.4191 152.5C44.4191 153.881 43.3143 155 41.9514 155C40.5885 155 39.4836 153.881 39.4836 152.5C39.4836 151.119 40.5885 150 41.9514 150C43.3143 150 44.4191 151.119 44.4191 152.5Z" fill="#1C1B20"/>
<path d="M54.2902 152.5C54.2902 153.881 53.1853 155 51.8224 155C50.4595 155 49.3547 153.881 49.3547 152.5C49.3547 151.119 50.4595 150 51.8224 150C53.1853 150 54.2902 151.119 54.2902 152.5Z" fill="#1C1B20"/>
<path d="M64.1612 152.5C64.1612 153.881 63.0563 155 61.6934 155C60.3305 155 59.2257 153.881 59.2257 152.5C59.2257 151.119 60.3305 150 61.6934 150C63.0563 150 64.1612 151.119 64.1612 152.5Z" fill="#1C1B20"/>
<path d="M123.387 122.5C123.387 123.881 122.282 125 120.919 125C119.556 125 118.451 123.881 118.451 122.5C118.451 121.119 119.556 120 120.919 120C122.282 120 123.387 121.119 123.387 122.5Z" fill="#1C1B20"/>
<path d="M133.258 122.5C133.258 123.881 132.153 125 130.79 125C129.427 125 128.322 123.881 128.322 122.5C128.322 121.119 129.427 120 130.79 120C132.153 120 133.258 121.119 133.258 122.5Z" fill="#1C1B20"/>
<path d="M143.129 122.5C143.129 123.881 142.024 125 140.661 125C139.298 125 138.193 123.881 138.193 122.5C138.193 121.119 139.298 120 140.661 120C142.024 120 143.129 121.119 143.129 122.5Z" fill="#1C1B20"/>
<path d="M153 122.5C153 123.881 151.895 125 150.532 125C149.169 125 148.064 123.881 148.064 122.5C148.064 121.119 149.169 120 150.532 120C151.895 120 153 121.119 153 122.5Z" fill="#1C1B20"/>
<path d="M123.387 132.5C123.387 133.881 122.282 135 120.919 135C119.556 135 118.451 133.881 118.451 132.5C118.451 131.119 119.556 130 120.919 130C122.282 130 123.387 131.119 123.387 132.5Z" fill="#1C1B20"/>
<path d="M133.258 132.5C133.258 133.881 132.153 135 130.79 135C129.427 135 128.322 133.881 128.322 132.5C128.322 131.119 129.427 130 130.79 130C132.153 130 133.258 131.119 133.258 132.5Z" fill="#1C1B20"/>
<path d="M143.129 132.5C143.129 133.881 142.024 135 140.661 135C139.298 135 138.193 133.881 138.193 132.5C138.193 131.119 139.298 130 140.661 130C142.024 130 143.129 131.119 143.129 132.5Z" fill="#1C1B20"/>
<path d="M153 132.5C153 133.881 151.895 135 150.532 135C149.169 135 148.064 133.881 148.064 132.5C148.064 131.119 149.169 130 150.532 130C151.895 130 153 131.119 153 132.5Z" fill="#1C1B20"/>
<path d="M123.387 142.5C123.387 143.881 122.282 145 120.919 145C119.556 145 118.451 143.881 118.451 142.5C118.451 141.119 119.556 140 120.919 140C122.282 140 123.387 141.119 123.387 142.5Z" fill="#1C1B20"/>
<path d="M133.258 142.5C133.258 143.881 132.153 145 130.79 145C129.427 145 128.322 143.881 128.322 142.5C128.322 141.119 129.427 140 130.79 140C132.153 140 133.258 141.119 133.258 142.5Z" fill="#1C1B20"/>
<path d="M143.129 142.5C143.129 143.881 142.024 145 140.661 145C139.298 145 138.193 143.881 138.193 142.5C138.193 141.119 139.298 140 140.661 140C142.024 140 143.129 141.119 143.129 142.5Z" fill="#1C1B20"/>
<path d="M153 142.5C153 143.881 151.895 145 150.532 145C149.169 145 148.064 143.881 148.064 142.5C148.064 141.119 149.169 140 150.532 140C151.895 140 153 141.119 153 142.5Z" fill="#FF5851"/>
<path d="M123.387 152.5C123.387 153.881 122.282 155 120.919 155C119.556 155 118.451 153.881 118.451 152.5C118.451 151.119 119.556 150 120.919 150C122.282 150 123.387 151.119 123.387 152.5Z" fill="#1C1B20"/>
<path d="M133.258 152.5C133.258 153.881 132.153 155 130.79 155C129.427 155 128.322 153.881 128.322 152.5C128.322 151.119 129.427 150 130.79 150C132.153 150 133.258 151.119 133.258 152.5Z" fill="#1C1B20"/>
<path d="M143.129 152.5C143.129 153.881 142.024 155 140.661 155C139.298 155 138.193 153.881 138.193 152.5C138.193 151.119 139.298 150 140.661 150C142.024 150 143.129 151.119 143.129 152.5Z" fill="#1C1B20"/>
<path d="M153 152.5C153 153.881 151.895 155 150.532 155C149.169 155 148.064 153.881 148.064 152.5C148.064 151.119 149.169 150 150.532 150C151.895 150 153 151.119 153 152.5Z" fill="#1C1B20"/>
<path d="M74.0322 152.5C74.0322 153.881 72.9274 155 71.5645 155C70.2016 155 69.0967 153.881 69.0967 152.5C69.0967 151.119 70.2016 150 71.5645 150C72.9274 150 74.0322 151.119 74.0322 152.5Z" fill="#1C1B20"/>
<path d="M83.9032 152.5C83.9032 153.881 82.7984 155 81.4355 155C80.0726 155 78.9678 153.881 78.9678 152.5C78.9678 151.119 80.0726 150 81.4355 150C82.7984 150 83.9032 151.119 83.9032 152.5Z" fill="#1C1B20"/>
<path d="M93.7743 152.5C93.7743 153.881 92.6694 155 91.3065 155C89.9436 155 88.8388 153.881 88.8388 152.5C88.8388 151.119 89.9436 150 91.3065 150C92.6694 150 93.7743 151.119 93.7743 152.5Z" fill="#1C1B20"/>
<path d="M103.645 152.5C103.645 153.881 102.54 155 101.178 155C99.8147 155 98.7098 153.881 98.7098 152.5C98.7098 151.119 99.8147 150 101.178 150C102.54 150 103.645 151.119 103.645 152.5Z" fill="#1C1B20"/>
<path d="M113.516 152.5C113.516 153.881 112.411 155 111.049 155C109.686 155 108.581 153.881 108.581 152.5C108.581 151.119 109.686 150 111.049 150C112.411 150 113.516 151.119 113.516 152.5Z" fill="#1C1B20"/>
</svg>
