<svg width="75" height="35" viewBox="0 0 75 35" fill="none" xmlns="http://www.w3.org/2000/svg">
<path d="M70 2.5C70 3.88071 71.1193 5 72.5 5C73.8807 5 75 3.88071 75 2.5C75 1.11929 73.8807 0 72.5 0C71.1193 0 70 1.11929 70 2.5Z" fill="#ECEBEE"/>
<path d="M60 2.5C60 3.88071 61.1193 5 62.5 5C63.8807 5 65 3.88071 65 2.5C65 1.11929 63.8807 0 62.5 0C61.1193 0 60 1.11929 60 2.5Z" fill="#DCDBE1"/>
<path d="M50 2.5C50 3.88071 51.1193 5 52.5 5C53.8807 5 55 3.88071 55 2.5C55 1.11929 53.8807 0 52.5 0C51.1193 0 50 1.11929 50 2.5Z" fill="#ECEBEE"/>
<path d="M40 2.5C40 3.88071 41.1193 5 42.5 5C43.8807 5 45 3.88071 45 2.5C45 1.11929 43.8807 0 42.5 0C41.1193 0 40 1.11929 40 2.5Z" fill="#ECEBEE"/>
<path d="M40 12.5C40 13.8807 41.1193 15 42.5 15C43.8807 15 45 13.8807 45 12.5C45 11.1193 43.8807 10 42.5 10C41.1193 10 40 11.1193 40 12.5Z" fill="#ECEBEE"/>
<path d="M40 12.5C40 13.8807 41.1193 15 42.5 15C43.8807 15 45 13.8807 45 12.5C45 11.1193 43.8807 10 42.5 10C41.1193 10 40 11.1193 40 12.5Z" fill="#ECEBEE"/>
<path d="M40 22.5C40 23.8807 41.1193 25 42.5 25C43.8807 25 45 23.8807 45 22.5C45 21.1193 43.8807 20 42.5 20C41.1193 20 40 21.1193 40 22.5Z" fill="#ECEBEE"/>
<path d="M50 12.5C50 13.8807 51.1193 15 52.5 15C53.8807 15 55 13.8807 55 12.5C55 11.1193 53.8807 10 52.5 10C51.1193 10 50 11.1193 50 12.5Z" fill="#ECEBEE"/>
<path d="M50 22.5C50 23.8807 51.1193 25 52.5 25C53.8807 25 55 23.8807 55 22.5C55 21.1193 53.8807 20 52.5 20C51.1193 20 50 21.1193 50 22.5Z" fill="#DCDBE1"/>
<path d="M60 12.5C60 13.8807 61.1193 15 62.5 15C63.8807 15 65 13.8807 65 12.5C65 11.1193 63.8807 10 62.5 10C61.1193 10 60 11.1193 60 12.5Z" fill="#ECEBEE"/>
<path d="M60 22.5C60 23.8807 61.1193 25 62.5 25C63.8807 25 65 23.8807 65 22.5C65 21.1193 63.8807 20 62.5 20C61.1193 20 60 21.1193 60 22.5Z" fill="#ECEBEE"/>
<path d="M60 22.5C60 23.8807 61.1193 25 62.5 25C63.8807 25 65 23.8807 65 22.5C65 21.1193 63.8807 20 62.5 20C61.1193 20 60 21.1193 60 22.5Z" fill="#ECEBEE"/>
<path d="M70 12.5C70 13.8807 71.1193 15 72.5 15C73.8807 15 75 13.8807 75 12.5C75 11.1193 73.8807 10 72.5 10C71.1193 10 70 11.1193 70 12.5Z" fill="#ECEBEE"/>
<path d="M30 2.5C30 3.88071 31.1193 5 32.5 5C33.8807 5 35 3.88071 35 2.5C35 1.11929 33.8807 0 32.5 0C31.1193 0 30 1.11929 30 2.5Z" fill="#ECEBEE"/>
<path d="M20 2.5C20 3.88071 21.1193 5 22.5 5C23.8807 5 25 3.88071 25 2.5C25 1.11929 23.8807 0 22.5 0C21.1193 0 20 1.11929 20 2.5Z" fill="#DCDBE1"/>
<path d="M10 2.5C10 3.88071 11.1193 5 12.5 5C13.8807 5 15 3.88071 15 2.5C15 1.11929 13.8807 0 12.5 0C11.1193 0 10 1.11929 10 2.5Z" fill="#ECEBEE"/>
<path d="M0 2.5C0 3.88071 1.11929 5 2.5 5C3.88071 5 5 3.88071 5 2.5C5 1.11929 3.88071 0 2.5 0C1.11929 0 0 1.11929 0 2.5Z" fill="#ECEBEE"/>
<path d="M20 12.5C20 13.8807 21.1193 15 22.5 15C23.8807 15 25 13.8807 25 12.5C25 11.1193 23.8807 10 22.5 10C21.1193 10 20 11.1193 20 12.5Z" fill="#ECEBEE"/>
<path d="M30 12.5C30 13.8807 31.1193 15 32.5 15C33.8807 15 35 13.8807 35 12.5C35 11.1193 33.8807 10 32.5 10C31.1193 10 30 11.1193 30 12.5Z" fill="#ECEBEE"/>
<path d="M70 22.5C70 23.8807 71.1193 25 72.5 25C73.8807 25 75 23.8807 75 22.5C75 21.1193 73.8807 20 72.5 20C71.1193 20 70 21.1193 70 22.5Z" fill="#DCDBE1"/>
<path d="M60 32.5C60 33.8807 61.1193 35 62.5 35C63.8807 35 65 33.8807 65 32.5C65 31.1193 63.8807 30 62.5 30C61.1193 30 60 31.1193 60 32.5Z" fill="#ECEBEE"/>
<path d="M60 32.5C60 33.8807 61.1193 35 62.5 35C63.8807 35 65 33.8807 65 32.5C65 31.1193 63.8807 30 62.5 30C61.1193 30 60 31.1193 60 32.5Z" fill="#ECEBEE"/>
<path d="M70 32.5C70 33.8807 71.1193 35 72.5 35C73.8807 35 75 33.8807 75 32.5C75 31.1193 73.8807 30 72.5 30C71.1193 30 70 31.1193 70 32.5Z" fill="#ECEBEE"/>
</svg>
