<svg width="75" height="35" viewBox="0 0 75 35" fill="none" xmlns="http://www.w3.org/2000/svg">
<path d="M5 2.5C5 3.88071 3.88071 5 2.5 5C1.11929 5 0 3.88071 0 2.5C0 1.11929 1.11929 0 2.5 0C3.88071 0 5 1.11929 5 2.5Z" fill="#2C2A31"/>
<path d="M15 2.5C15 3.88071 13.8807 5 12.5 5C11.1193 5 10 3.88071 10 2.5C10 1.11929 11.1193 0 12.5 0C13.8807 0 15 1.11929 15 2.5Z" fill="#3D3B45"/>
<path d="M25 2.5C25 3.88071 23.8807 5 22.5 5C21.1193 5 20 3.88071 20 2.5C20 1.11929 21.1193 0 22.5 0C23.8807 0 25 1.11929 25 2.5Z" fill="#2C2A31"/>
<path d="M35 2.5C35 3.88071 33.8807 5 32.5 5C31.1193 5 30 3.88071 30 2.5C30 1.11929 31.1193 0 32.5 0C33.8807 0 35 1.11929 35 2.5Z" fill="#2C2A31"/>
<path d="M35 12.5C35 13.8807 33.8807 15 32.5 15C31.1193 15 30 13.8807 30 12.5C30 11.1193 31.1193 10 32.5 10C33.8807 10 35 11.1193 35 12.5Z" fill="#2C2A31"/>
<path d="M35 12.5C35 13.8807 33.8807 15 32.5 15C31.1193 15 30 13.8807 30 12.5C30 11.1193 31.1193 10 32.5 10C33.8807 10 35 11.1193 35 12.5Z" fill="#2C2A31"/>
<path d="M35 22.5C35 23.8807 33.8807 25 32.5 25C31.1193 25 30 23.8807 30 22.5C30 21.1193 31.1193 20 32.5 20C33.8807 20 35 21.1193 35 22.5Z" fill="#2C2A31"/>
<path d="M25 12.5C25 13.8807 23.8807 15 22.5 15C21.1193 15 20 13.8807 20 12.5C20 11.1193 21.1193 10 22.5 10C23.8807 10 25 11.1193 25 12.5Z" fill="#2C2A31"/>
<path d="M25 22.5C25 23.8807 23.8807 25 22.5 25C21.1193 25 20 23.8807 20 22.5C20 21.1193 21.1193 20 22.5 20C23.8807 20 25 21.1193 25 22.5Z" fill="#3D3B45"/>
<path d="M15 12.5C15 13.8807 13.8807 15 12.5 15C11.1193 15 10 13.8807 10 12.5C10 11.1193 11.1193 10 12.5 10C13.8807 10 15 11.1193 15 12.5Z" fill="#2C2A31"/>
<path d="M15 22.5C15 23.8807 13.8807 25 12.5 25C11.1193 25 10 23.8807 10 22.5C10 21.1193 11.1193 20 12.5 20C13.8807 20 15 21.1193 15 22.5Z" fill="#2C2A31"/>
<path d="M15 22.5C15 23.8807 13.8807 25 12.5 25C11.1193 25 10 23.8807 10 22.5C10 21.1193 11.1193 20 12.5 20C13.8807 20 15 21.1193 15 22.5Z" fill="#2C2A31"/>
<path d="M5 12.5C5 13.8807 3.88071 15 2.5 15C1.11929 15 0 13.8807 0 12.5C0 11.1193 1.11929 10 2.5 10C3.88071 10 5 11.1193 5 12.5Z" fill="#2C2A31"/>
<path d="M45 2.5C45 3.88071 43.8807 5 42.5 5C41.1193 5 40 3.88071 40 2.5C40 1.11929 41.1193 0 42.5 0C43.8807 0 45 1.11929 45 2.5Z" fill="#2C2A31"/>
<path d="M55 2.5C55 3.88071 53.8807 5 52.5 5C51.1193 5 50 3.88071 50 2.5C50 1.11929 51.1193 0 52.5 0C53.8807 0 55 1.11929 55 2.5Z" fill="#3D3B45"/>
<path d="M65 2.5C65 3.88071 63.8807 5 62.5 5C61.1193 5 60 3.88071 60 2.5C60 1.11929 61.1193 0 62.5 0C63.8807 0 65 1.11929 65 2.5Z" fill="#2C2A31"/>
<path d="M75 2.5C75 3.88071 73.8807 5 72.5 5C71.1193 5 70 3.88071 70 2.5C70 1.11929 71.1193 0 72.5 0C73.8807 0 75 1.11929 75 2.5Z" fill="#2C2A31"/>
<path d="M55 12.5C55 13.8807 53.8807 15 52.5 15C51.1193 15 50 13.8807 50 12.5C50 11.1193 51.1193 10 52.5 10C53.8807 10 55 11.1193 55 12.5Z" fill="#2C2A31"/>
<path d="M45 12.5C45 13.8807 43.8807 15 42.5 15C41.1193 15 40 13.8807 40 12.5C40 11.1193 41.1193 10 42.5 10C43.8807 10 45 11.1193 45 12.5Z" fill="#2C2A31"/>
<path d="M5 22.5C5 23.8807 3.88071 25 2.5 25C1.11929 25 0 23.8807 0 22.5C0 21.1193 1.11929 20 2.5 20C3.88071 20 5 21.1193 5 22.5Z" fill="#3D3B45"/>
<path d="M15 32.5C15 33.8807 13.8807 35 12.5 35C11.1193 35 10 33.8807 10 32.5C10 31.1193 11.1193 30 12.5 30C13.8807 30 15 31.1193 15 32.5Z" fill="#2C2A31"/>
<path d="M15 32.5C15 33.8807 13.8807 35 12.5 35C11.1193 35 10 33.8807 10 32.5C10 31.1193 11.1193 30 12.5 30C13.8807 30 15 31.1193 15 32.5Z" fill="#2C2A31"/>
<path d="M5 32.5C5 33.8807 3.88071 35 2.5 35C1.11929 35 0 33.8807 0 32.5C0 31.1193 1.11929 30 2.5 30C3.88071 30 5 31.1193 5 32.5Z" fill="#2C2A31"/>
</svg>
